<?xml version="1.0" encoding="UTF-8"?>
<!DOCTYPE svg PUBLIC "-//W3C//DTD SVG 1.1//EN" "http://www.w3.org/Graphics/SVG/1.1/DTD/svg11.dtd">
<svg xmlns="http://www.w3.org/2000/svg" version="1.1" width="660px" height="621px" style="shape-rendering:geometricPrecision; text-rendering:geometricPrecision; image-rendering:optimizeQuality; fill-rule:evenodd; clip-rule:evenodd" xmlns:xlink="http://www.w3.org/1999/xlink">
<g><path style="opacity:1" fill="#545453" d="M 605.5,259.5 C 601.113,267.68 594.78,269.513 586.5,265C 582.452,261.284 578.118,257.95 573.5,255C 561.1,254.35 549.433,257.016 538.5,263C 529.888,268.613 521.554,274.613 513.5,281C 503.638,287.57 493.638,288.07 483.5,282.5C 481.203,279.569 479.703,276.236 479,272.5C 478.399,262.619 478.899,252.786 480.5,243C 480.434,240.745 480.101,238.578 479.5,236.5C 477.209,223.667 469.542,218.833 456.5,222C 451.055,223.888 446.055,226.555 441.5,230C 391.647,277.493 348.147,329.993 311,387.5C 296.252,412.666 281.252,437.666 266,462.5C 256.551,475.29 244.717,485.123 230.5,492C 212.571,499.041 196.571,496.207 182.5,483.5C 175.65,472.336 174.816,460.67 180,448.5C 184.847,436.985 192.013,427.152 201.5,419C 284.315,357.208 350.148,281.042 399,190.5C 403.564,181.264 405.397,171.597 404.5,161.5C 402.405,152.227 397.071,145.394 388.5,141C 375.069,135.055 362.736,136.722 351.5,146C 340.608,155.968 331.774,167.468 325,180.5C 318.589,193.656 311.922,206.656 305,219.5C 300.608,227.225 295.441,234.392 289.5,241C 278.177,251.6 266.51,252.1 254.5,242.5C 245.899,226.046 248.566,211.546 262.5,199C 278.103,189.739 292.27,178.572 305,165.5C 315.553,152.063 323.219,137.063 328,120.5C 331.729,106.358 334.229,92.0242 335.5,77.5C 335.664,74.8127 335.497,72.146 335,69.5C 331.574,66.0581 327.74,63.5581 323.5,62C 235.347,130.575 147.014,198.909 58.5,267C 55.1322,267.543 51.7989,267.376 48.5,266.5C 41.3037,258.688 41.9704,251.521 50.5,245C 138.786,177.049 226.786,108.716 314.5,40C 319.693,35.0258 325.36,34.3592 331.5,38C 422.424,108.713 513.257,179.546 604,250.5C 605.149,253.393 605.649,256.393 605.5,259.5 Z"/></g>
<g><path style="opacity:1" fill="#c8ed15" d="M 335.5,77.5 C 333.211,75.9941 330.877,74.8274 328.5,74C 241.5,141.667 154.5,209.333 67.5,277C 56.1433,282.325 49.81,278.825 48.5,266.5C 51.7989,267.376 55.1322,267.543 58.5,267C 147.014,198.909 235.347,130.575 323.5,62C 327.74,63.5581 331.574,66.0581 335,69.5C 335.497,72.146 335.664,74.8127 335.5,77.5 Z"/></g>
<g><path style="opacity:1" fill="#c8ed15" d="M 404.5,161.5 C 388.835,146.589 372.501,145.756 355.5,159C 348.246,166.25 341.746,174.083 336,182.5C 327.823,196.852 320.157,211.518 313,226.5C 307.27,236.794 300.436,246.294 292.5,255C 279.167,264.816 267.334,263.316 257,250.5C 255.659,247.978 254.826,245.311 254.5,242.5C 266.51,252.1 278.177,251.6 289.5,241C 295.441,234.392 300.608,227.225 305,219.5C 311.922,206.656 318.589,193.656 325,180.5C 331.774,167.468 340.608,155.968 351.5,146C 362.736,136.722 375.069,135.055 388.5,141C 397.071,145.394 402.405,152.227 404.5,161.5 Z"/></g>
<g><path style="opacity:1" fill="#c8ed15" d="M 479.5,236.5 C 474.166,233.725 468.499,232.891 462.5,234C 456.619,235.607 451.286,238.274 446.5,242C 394.88,290.591 350.38,344.758 313,404.5C 300,426.5 287,448.5 274,470.5C 263.929,484.909 251.095,496.075 235.5,504C 217.121,511.634 200.954,508.467 187,494.5C 184.934,491.039 183.434,487.373 182.5,483.5C 196.571,496.207 212.571,499.041 230.5,492C 244.717,485.123 256.551,475.29 266,462.5C 281.252,437.666 296.252,412.666 311,387.5C 348.147,329.993 391.647,277.493 441.5,230C 446.055,226.555 451.055,223.888 456.5,222C 469.542,218.833 477.209,223.667 479.5,236.5 Z"/></g>
<g><path style="opacity:1" fill="#c8ed15" d="M 605.5,259.5 C 610.97,263.992 611.804,269.325 608,275.5C 604.51,279.047 600.343,280.214 595.5,279C 589.967,276.066 584.967,272.4 580.5,268C 563.277,265.973 547.944,270.473 534.5,281.5C 524.355,278.971 519.021,282.971 518.5,293.5C 512.893,296.48 506.893,298.48 500.5,299.5C 490.525,298.192 484.859,292.525 483.5,282.5C 493.638,288.07 503.638,287.57 513.5,281C 521.554,274.613 529.888,268.613 538.5,263C 549.433,257.016 561.1,254.35 573.5,255C 578.118,257.95 582.452,261.284 586.5,265C 594.78,269.513 601.113,267.68 605.5,259.5 Z"/></g>
<g><path style="opacity:1" fill="#535453" d="M 130.5,294.5 C 130.5,375.167 130.5,455.833 130.5,536.5C 132.167,536.5 133.833,536.5 135.5,536.5C 263.167,536.5 390.833,536.5 518.5,536.5C 518.5,455.5 518.5,374.5 518.5,293.5C 519.021,282.971 524.355,278.971 534.5,281.5C 539.148,284.129 541.148,288.129 540.5,293.5C 540.667,379.501 540.5,465.501 540,551.5C 538.878,553.624 537.378,555.457 535.5,557C 465.248,558.164 394.914,558.664 324.5,558.5C 254.833,558.333 185.167,558.167 115.5,558C 114.473,557.487 113.473,556.987 112.5,556.5C 109.987,554.467 108.487,551.801 108,548.5C 107.333,462.5 107.333,376.5 108,290.5C 109.709,282.721 114.542,279.555 122.5,281C 128.333,283.484 131,287.984 130.5,294.5 Z"/></g>
<g><path style="opacity:1" fill="#c8ed15" d="M 540.5,293.5 C 543.556,295.263 545.389,297.93 546,301.5C 546.667,388.167 546.667,474.833 546,561.5C 544.715,567.118 541.215,570.285 535.5,571C 398.167,571.667 260.833,571.667 123.5,571C 115.486,569.484 111.819,564.65 112.5,556.5C 113.473,556.987 114.473,557.487 115.5,558C 185.167,558.167 254.833,558.333 324.5,558.5C 394.914,558.664 465.248,558.164 535.5,557C 537.378,555.457 538.878,553.624 540,551.5C 540.5,465.501 540.667,379.501 540.5,293.5 Z"/></g>
<g><path style="opacity:1" fill="#c8ed15" d="M 130.5,294.5 C 132.504,295.673 134.004,297.34 135,299.5C 135.5,378.499 135.667,457.499 135.5,536.5C 133.833,536.5 132.167,536.5 130.5,536.5C 130.5,455.833 130.5,375.167 130.5,294.5 Z"/></g>
</svg>
